<svg xmlns="http://www.w3.org/2000/svg" viewBox="0 0 24 24"><defs><style>.cls-1{fill:#111320;}</style></defs><g id="User_Interface_ic-close" data-name="User Interface/ic-close"><path class="cls-1" d="M21.14,4.56l.15-.15c.21-.2,0-.28-.12-.31L21.29,4c.32-.31.08-.38-.21-.31a.49.49,0,0,0-.5.09L19.1,5.22a70.23,70.23,0,0,0-5.06,5L12.66,11.6l-.61.63L10.76,13.5C8.43,15.78,6,17.91,3.51,20L3,20.35c-.39.28.62.36.58.36.35.05,1.41.17,1.71-.11l.42-.42a.26.26,0,0,0,.14-.06,36.45,36.45,0,0,0,4.72-4.57l.14-.18.38-.47q5.05-5,10.12-10C21.54,4.6,21.33,4.58,21.14,4.56Z"/><path class="cls-1" d="M20.3,20.91l-1.24-1.24c-2.39-2.68-4.93-5.2-7.45-7.77C9.82,10.06,8.1,8.18,6.42,6.25,5.71,5.19,5,4.14,4.3,3.07c-.23-.34-.33.29-.37.58a.39.39,0,0,0-.08-.1c-.09-.12-.19.06-.27.35l0,0C3.26,3.52,3,5,3.3,5.3c5.18,5.37,10.51,10.61,15.69,16a.15.15,0,0,0,.19,0l.11.12c.14.14.22.14.27.08s.13.13.2.2c.41.41.33,0,.35-.25a.6.6,0,0,0-.05-.24s0,0,0,0h0C20.23,21.13,20.4,21,20.3,20.91Z"/></g></svg>