<svg xmlns="http://www.w3.org/2000/svg" viewBox="0 0 24 24"><defs><style>.cls-1{fill:#111320;}</style></defs><g id="User_Interface_ic-menu" data-name="User Interface/ic-menu"><path class="cls-1" d="M20.57,6.21c-1.66,0-3.32,0-5,0C12.07,6.11,8.55,6,5,5.82L3.49,5.6c-.06,0,0,.14.11.34a1.82,1.82,0,0,0,.67.88L4.46,7c.1.22.4.54.57.54,1.82,0,3.72.18,5.53.06,1.06-.07,2.11-.27,3.16-.42l6.82,0c.37,0,.18-.17.05-.29h0c.18,0,.17-.16.1-.25l-.07-.05h.08C21,6.6,20.84,6.21,20.57,6.21Z"/><path class="cls-1" d="M21.63,12.59h.07c.25,0,.17-.39-.11-.39-1.85,0-3.71,0-5.57,0h-.44c-3.56-.07-7.12-.17-10.68-.42L3.49,11.6c-.06,0,0,.14.11.34a1.8,1.8,0,0,0,.67.88l.19.16c.1.22.4.54.57.54,1.65,0,3.39.21,5,.1s3.5-.29,5.25-.44l6.23,0c.38,0,.2-.17.06-.3h0c.24,0,.13-.11-.08-.23h0A.11.11,0,0,0,21.63,12.59Z"/><path class="cls-1" d="M16.72,18.58c.23,0,.2-.39-.07-.39l-3.19,0c-2.78,0-5.55-.16-8.34-.37-.54-.08-1.08-.15-1.63-.25-.06,0,0,.14.12.34a1.77,1.77,0,0,0,.65.87,1.51,1.51,0,0,0,.2.17c.1.22.41.54.57.54,1.32,0,2.63,0,4,.1a22.74,22.74,0,0,0,4.6-.44h3c.37,0,.2-.16.06-.3a.05.05,0,0,0,0,0h0c.24,0,.15-.12,0-.24a.15.15,0,0,0,.07-.05Z"/></g></svg>